<svg width="32" height="32" xmlns="http://www.w3.org/2000/svg">

 <g>
  <title>background</title>
  <rect fill="none" id="canvas_background" height="402" width="582" y="-1" x="-1"/>
 </g>
 <g>
  <title>Layer 1</title>
  <path id="svg_1" fill="#64d6d6" d="m24.832001,11.445c-0.186001,-0.278 -0.498001,-0.445 -0.832001,-0.445l-1,0c-0.552999,0 -1,0.447 -1,1l0,6c0,0.552999 0.447001,1 1,1l4,0c0.552999,0 1,-0.447001 1,-1l0,-1.5c0,-0.197001 -0.059,-0.391001 -0.167999,-0.555l-3,-4.5zm2.167999,6.555l-4,0l0,-6l1,0l3,4.5l0,1.5z"/>
  <path id="svg_2" fill="#4d7777" d="m31.496,15.336l-4,-6c-0.558001,-0.837001 -1.492001,-1.336 -2.496,-1.336l-4,0l0,-2c0,-1.654 -1.346001,-3 -3,-3l-15,0c-1.654,0 -3,1.346 -3,3l0,11c0,1.653999 1.346,3 3,3l0,0l0,3c0,1.653999 1.346,3 3,3l1.142,0c0.447,1.721001 2,3 3.859,3c1.856999,0 3.41,-1.278999 3.856999,-3l5.282,0c0.447001,1.721001 2,3 3.859001,3c1.857,0 3.41,-1.278999 3.857,-3l1.143999,0c1.653999,0 3,-1.346001 3,-3l0,-6c0,-0.594 -0.174,-1.17 -0.504,-1.664zm-28.496,2.664c-0.552,0 -1,-0.447001 -1,-1l0,-11c0,-0.553 0.448,-1 1,-1l15,0c0.552999,0 1,0.447 1,1l0,2l0,2l0,7c0,0.552999 -0.447001,1 -1,1l-15,0zm8.001,9c-1.105,0 -2,-0.896 -2,-2s0.895,-2 2,-2c1.103999,0 2,0.896 2,2s-0.897,2 -2,2zm12.999,0c-1.105,0 -2,-0.896 -2,-2s0.895,-2 2,-2c1.104,0 2,0.896 2,2s-0.896,2 -2,2zm6,-4c0,0.552999 -0.447001,1 -1,1l-1.143,0c-0.447001,-1.721001 -2,-3 -3.857,-3c-1.858999,0 -3.412001,1.278999 -3.858999,3l-5.282001,0c-0.447001,-1.721001 -2,-3 -3.857,-3c-1.859,0 -3.412,1.278999 -3.859,3l-1.143,0c-0.552,0 -1,-0.447001 -1,-1l0,-3l13,0c1.653999,0 3,-1.346001 3,-3l0,-7l4,0c0.334,0 0.646,0.167 0.832001,0.445l4,6c0.108999,0.164 0.167999,0.358 0.167999,0.555l0,6z"/>
 </g>
</svg>