<?xml version="1.0" ?><svg id="Layer_1" style="enable-background:new 0 0 64 64;" version="1.1" viewBox="0 0 64 64" xml:space="preserve" xmlns="http://www.w3.org/2000/svg" xmlns:xlink="http://www.w3.org/1999/xlink"><style type="text/css">
	.st0{fill:none;stroke:cadetblue;stroke-width:2;stroke-linecap:round;stroke-linejoin:round;stroke-miterlimit:10;}
	.st1{fill:#f2f2f2;}
	.st2{fill:none;stroke:#000000;stroke-width:2;stroke-linecap:round;stroke-linejoin:round;stroke-miterlimit:10;}
	.st3{fill:none;stroke:#f2f2f2;stroke-width:2;stroke-linecap:round;stroke-linejoin:round;}
	.st4{fill:none;stroke:#f2f2f2;stroke-width:2;stroke-linecap:round;stroke-linejoin:round;stroke-dasharray:5.8,5.8;}
</style><g id="XMLID_5_"><g><circle class="st1" cx="44" cy="42" r="1"/><path class="st1" d="M25,37L25,37c0,0.6-0.4,1-1,1h-9c-0.6,0-1-0.4-1-1l0,0c0-0.6,0.4-1,1-1h9C24.6,36,25,36.4,25,37z"/></g><g><polygon class="st0" points="56,24 59,24 42.5,12 38.1,15 25,24 28,24   "/><polyline class="st0" points="28,41 28,33 28,28 28,27 28,24   "/><polyline class="st0" points="56,24 56,28 56,41   "/><line class="st0" x1="48" x2="54" y1="50" y2="50"/><line class="st0" x1="30" x2="36" y1="50" y2="50"/><polyline class="st0" points="58,50 58,54 26,54 26,50   "/><polygon class="st0" points="30,50 26,50 26,41 28,41 30,41   "/><polygon class="st0" points="58,50 54,50 54,41 56,41 58,41   "/><rect class="st0" height="17" width="12" x="36" y="33"/><line class="st0" x1="28" x2="56" y1="28" y2="28"/><polyline class="st0" points="38.1,15 12,15 4,27 7,27 28,27   "/><polyline class="st0" points="7,27 7,54 11,54 26,54   "/><polyline class="st0" points="28,33 11,33 11,54   "/></g></g></svg>