<svg width="48" height="48" xmlns="http://www.w3.org/2000/svg">

 <g>
  <title>background</title>
  <rect fill="none" id="canvas_background" height="402" width="582" y="-1" x="-1"/>
 </g>
 <g>
  <title>Layer 1</title>
  <path id="svg_2" fill="#5e5ec9" d="m24,25.66724c-0.19727,0 -0.35742,0.16016 -0.35742,0.35742l0,3.10107c0,0.19727 0.16016,0.35742 0.35742,0.35742s0.35742,-0.16016 0.35742,-0.35742l0,-3.10107c0,-0.19727 -0.16015,-0.35742 -0.35742,-0.35742z"/>
  <path id="svg_3" fill="#5353ba" d="m24,19.61499c-4.38916,0 -7.95996,3.5708 -7.95996,7.95996s3.5708,7.95996 7.95996,7.95996s7.95996,-3.5708 7.95996,-7.95996s-3.5708,-7.95996 -7.95996,-7.95996zm-3.01074,13.37793c-0.06592,0.10742 -0.18066,0.1665 -0.29834,0.1665c-0.0625,0 -0.12598,-0.0166 -0.18311,-0.05225c-1.99023,-1.2251 -3.17871,-3.3501 -3.17871,-5.68408c0,-0.19336 0.15674,-0.3501 0.3501,-0.3501s0.3501,0.15674 0.3501,0.3501c0,2.08936 1.06348,3.99121 2.8457,5.08838c0.16455,0.10108 0.21582,0.3169 0.11426,0.48145zm2.30371,1.06152c-0.01318,0 -0.02588,-0.00098 -0.03906,-0.00244c-0.3833,-0.04248 -0.76465,-0.11914 -1.13428,-0.22705c-0.18506,-0.0542 -0.2915,-0.24902 -0.2373,-0.43457c0.05469,-0.18457 0.24707,-0.2915 0.43457,-0.2373c0.33008,0.09668 0.67139,0.16553 1.01416,0.20361c0.19238,0.021 0.33057,0.19434 0.30908,0.38623c-0.01953,0.1792 -0.17139,0.31152 -0.34717,0.31152zm1.76465,-4.92871c0,0.58301 -0.47461,1.05762 -1.05762,1.05762s-1.05762,-0.47461 -1.05762,-1.05762l0,-3.10107c0,-0.583 0.47461,-1.05762 1.05762,-1.05762s1.05762,0.47462 1.05762,1.05762l0,3.10107z"/>
  <path id="svg_4" fill="#5858c9" d="m30.18066,21.5199l0,-2.86487c0,-3.41309 -2.77686,-6.18994 -6.18994,-6.18994c-3.40771,0 -6.18018,2.77686 -6.18018,6.18994l0,2.87451c0,0 1.27548,-1.30906 2.4502,-1.75391l0,-1.12061c0,-2.06201 1.67773,-3.73975 3.73975,-3.73975c2.05664,0 3.72998,1.67773 3.72998,3.73975l0,1.11633c0,0 0.30054,0.13696 0.72754,0.39526c0.32928,0.19843 0.6449,0.4165 0.94415,0.65503c0.2594,0.20491 0.52484,0.43538 0.7785,0.69826z"/>
 </g>
</svg>