<?xml version="1.0" ?><!DOCTYPE svg  PUBLIC '-//W3C//DTD SVG 1.1//EN'  'http://www.w3.org/Graphics/SVG/1.1/DTD/svg11.dtd'><svg height="512px" style="enable-background:new 0 0 512 512;" version="1.1" viewBox="0 0 512 512" width="512px" xml:space="preserve" xmlns="http://www.w3.org/2000/svg" xmlns:xlink="http://www.w3.org/1999/xlink"><g id="_x32_56_x2C__explore_x2C__travel_x2C__mountains_x2C__camping_x2C__balloons"><g><path d="M94.561,285.215h-0.056h-5.261v12.313c0,3.387,1.399,6.465,3.61,8.703    c2.239,2.211,5.317,3.61,8.704,3.61h25.409c3.387,0,6.464-1.399,8.704-3.61c2.211-2.238,3.609-5.316,3.609-8.703v-12.313H94.561z     M115.466,355.874l-8.647,4.534c-2.211,1.146-4.477,2.35-6.604,3.637c-5.85,3.555-25.83,26.473-37.107,39.401l-0.672,0.783    l9.208-0.588l2.799-0.167l9.346-12.564c0.393-0.561,0.953-1.036,1.651-1.316l31.231-11.92    c2.797-2.268,20.371-16.566,28.236-22.555c8.114-6.156,15.194-26.109,15.222-26.166c0.588-1.79,2.518-2.77,4.31-2.182    c1.792,0.587,2.771,2.547,2.183,4.337c-0.028,0.056-7.891,22.079-17.602,29.467c-9.292,7.052-28.432,22.751-28.488,22.807    c-0.279,0.225-0.56,0.392-0.895,0.505l-30.81,11.779l-5.429,7.276c2.014-0.084,4.03-0.167,6.101-0.224    c4.336-0.112,27.787,0.84,42.088,1.427c5.12,0.196,8.142,0.7,9.29,0.7l2.436-2.463l0.054-0.056l0.028-0.028l0.056-0.056    l0.056-0.056l0.028-0.057l0.056-0.027l7.275-7.809c1.007-1.118,2.016-2.294,2.967-3.47h0.028l0.112-0.167l0.111-0.113l0.028-0.027    c4.059-5.064,7.108-9.795,10.746-15.446l0.841-1.315c2.965-4.617,5.82-8.563,8.646-12.005c3.246-4.31,6.884-8.228,12.957-13.433    l0.084-0.057c3.694-3.218,7.388-6.072,11.194-9.01c5.092-3.918,10.437-8.032,16.258-13.461l0.028-0.027l0.168-0.168l0.112-0.111    l0.083-0.085l1.735-1.706c-3.497-1.848-8.087-4.282-10.549-5.737c-0.616-0.196-1.176-0.532-1.623-1.063l-0.084-0.084    c-0.754-1.512-6.184-17.378-10.297-29.411l-2.379-6.94c-2.295,2.911-4.338,5.346-6.521,7.725    c-3.274,3.582-6.8,6.939-11.864,11.529c-15.365,13.936-16.651,16.09-26.53,32.965l-0.867,1.511    C141.322,342.554,126.268,350.306,115.466,355.874z M307.07,403.53l0.363-0.867h-0.057v-0.028l-0.027-0.028l0,0l-0.055-0.027l0,0    l-0.028-0.028h-0.028l-0.027-0.027l0,0l-0.057-0.028l0,0l-0.027-0.056l0,0l-0.057-0.028l0,0l-0.028-0.028l0,0l-0.057-0.028l0,0    l-0.027-0.056l-0.028-0.028h-0.028l-0.028-0.055l0,0l-0.027-0.028l0,0l-0.055-0.028l0,0l-0.028-0.056l0,0l-0.027-0.028l0,0    l-0.057-0.057l0,0l-0.028-0.026l0,0l-0.027-0.057l0,0l-0.028-0.028l0,0l-0.028-0.028l-0.028-0.027l0,0l-0.027-0.057l-0.028-0.027    l-0.028-0.056l-0.028-0.057l0,0l-0.027-0.027l-0.028-0.057l0,0l-0.028-0.056l-0.028-0.057l-0.027-0.055l-0.026-0.028    c-0.506-0.98-0.478-2.099-0.057-3.022l4.254-10.521c0-0.449,0.082-0.896,0.251-1.315l5.204-12.929    c0.338-0.84,1.008-1.512,1.82-1.848c6.799-3.021,7.611-5.625,9.291-11.109c0.643-2.127,1.398-4.617,2.574-7.695    c0.698-1.764,2.687-2.63,4.448-1.959c0.925,0.364,1.623,1.092,1.96,1.959l0.057,0.14l0.025,0.141l0.057,0.111l0.057,0.141    l0.056,0.14l0.028,0.111l0.057,0.141l0.056,0.111l0.028,0.141l0,0l0.056,0.111l0,0l0.056,0.14l0,0l0.029,0.112l0,0l0.054,0.14    l0.056,0.112l0,0l0.029,0.112v0.028l0.056,0.111l0.028,0.112l0,0l0.056,0.14l0.028,0.112l0,0l0.057,0.111l0,0l0.027,0.112v0.027    l0.057,0.111l0,0l0.027,0.113l0,0l0.057,0.111l0,0l0.027,0.112l0,0l0.055,0.14l0,0l0.028,0.111l0,0l0.028,0.113l0,0l0.057,0.111    l0,0l0.027,0.112l0,0l0.057,0.111l0,0l0.027,0.112v0.027l0.028,0.085l0,0l0.028,0.111h0.027l0.029,0.112v0.027l0.027,0.084v0.028    l0.028,0.084l0.028,0.028l0.027,0.084l0,0l0.028,0.111l0,0l0.026,0.112l0,0l0.028,0.111h0.028l0.027,0.112l0,0l0.028,0.111l0,0    l0.028,0.113l0,0l0.027,0.084l0.029,0.027l0.027,0.084l0,0l0.028,0.111l0,0l0.028,0.112l0,0l0.027,0.112l0,0l0.028,0.084v0.028    l0.056,0.083l0,0l0.029,0.112l0,0l0.027,0.085v0.026l0.028,0.085v0.027l0.028,0.084l0,0l0.025,0.111l0,0l0.028,0.085l0,0    l0.028,0.112h0.028l0.028,0.083v0.028l0.027,0.084l0,0l0.028,0.111l0,0l0.028,0.084l0,0l0.027,0.113l0,0l0.028,0.083v0.028    l0.085,0.252l0,0l0.084,0.252l0,0l0.084,0.251l0,0l0.055,0.252l0,0l0.084,0.253l0,0l0.084,0.252l0,0l0.084,0.224v0.028    l0.057,0.223h0.027l0.057,0.225v0.027l0.084,0.196v0.028l0.083,0.223l0,0l0.056,0.225h0.028l0,0l0.141,0.448l0,0l0.084,0.224l0,0    l0.085,0.195v0.028l0.082,0.196l0,0l0.084,0.195v0.027l0.084,0.197l0,0l0.084,0.195l0,0l0.085,0.195l0,0l0.084,0.196v0.028    l0.11,0.168l0,0l0.084,0.195l0,0l0.085,0.196h0.028l0.084,0.195l0,0l0.112,0.169v0.027l0.084,0.168h0.028l0.082,0.168v0.027    l0.112,0.169l0,0l0.112,0.167l0,0l0.112,0.168h0.028l0.11,0.168l0,0l0.112,0.168v0.028l0.141,0.14v0.027l0.112,0.141v0.028    l0.14,0.14l0,0l0.139,0.168l0,0l0.141,0.14v0.028l0.169,0.141l0,0l0.139,0.167l0,0l0.169,0.14l0,0l0.14,0.168h0.028l0.141,0.141    H343l0.141,0.14h0.028l0.169,0.14l0,0l0.168,0.141l0,0l0.195,0.168l0.196,0.111v0.027l0.194,0.112v0.028l0.197,0.112l0,0    l0.225,0.14l0,0l0.223,0.141l0,0l0.225,0.139l0,0l0.223,0.113l0.225,0.139l0.252,0.113v0.027l0.252,0.111l0,0l0.252,0.112v0.028    l0.279,0.111l0.253,0.112l0,0l0.278,0.14l0.308,0.112l0.28,0.111c0.896,0.364,1.567,1.063,1.902,1.931l5.234,12.901l0,0    l0.026,0.056l0,0v0.027l0,0l0.028,0.028l0,0v0.056l0,0l0.027,0.029l0,0l0.057,0.223v0.028l0,0l0.028,0.028v0.027l0.028,0.112l0,0    v0.028l0.027,0.111v0.028l0,0v0.028v0.027v0.027l0,0l0.028,0.169v0.028v0.055v0.028v0.169l0,0l4.31,10.689h0.028v0.084h0.028    v0.084l0,0l0.027,0.057l0,0l0.029,0.082l0,0l0.027,0.057l0,0v0.084h0.028v0.084l0,0l0.028,0.056l0,0v0.085l0,0l0.027,0.056l0,0    v0.083l0,0v0.084h0.026v0.057l0,0v0.084l0,0v0.363v0.084l0,0v0.057l0,0v0.084l0,0l-0.026,0.084l0,0v0.141h-0.027v0.055l0,0    l-0.057,0.279l0,0l-0.027,0.085l0,0l-0.029,0.14h-0.027v0.056l0,0l-0.057,0.141l0,0c-0.056,0.14-0.111,0.252-0.196,0.392l0,0    l-0.028,0.056l0,0l-0.082,0.112l0,0l-0.057,0.084l0,0l-0.084,0.111l0,0l-0.027,0.057l0,0l-0.057,0.057l0,0l-0.307,0.307l0,0    l-0.029,0.056h-0.027l-0.168,0.141l0,0l-0.057,0.056l0,0l-0.057,0.028l0,0l-0.056,0.056l0,0l-0.056,0.028l0.588,1.482    l51.294,0.477c15.194,0.083,27.676,0.14,35.288,0.14l2.715-0.028c15.501-0.056,22.19-0.056,34.839,2.322    c-3.75-3.134-7.304-6.212-10.746-9.346c-5.43-4.954-10.69-10.158-16.146-15.979c-4.869-5.262-8.507-8.535-12.453-11.334    c-3.919-2.826-8.311-5.261-14.608-8.702c-3.497-1.932-9.431-6.94-14.888-12.258c-5.428-5.26-10.521-10.97-12.508-14.412    c-3.918-6.716-6.102-15.838-7.919-23.422l-0.31-1.259c-4.785-20.149-12.088-27.788-19.251-35.261    c-6.073-6.323-12.062-12.592-16.622-25.156c-6.746-18.693-16.063-27.061-26.082-35.987c-7.023-6.324-14.411-12.929-21.576-23.395    l-0.307,0.476c-4.507,7.248-8.229,11.109-12.117,15.111c-2.436,2.49-4.953,5.093-7.696,8.647    c-4.028,5.177-6.184,11.36-8.366,17.63l-1.68,4.785c-2.826,7.387-6.884,11.081-11.193,14.971    c-4.589,4.198-9.542,8.676-12.929,19.338l-1.762,5.904c-2.239,7.835-2.714,9.346-9.067,19.756l-12.929,21.184l-0.448,0.561    c-2.016,2.182-3.862,4.113-5.569,5.876c-0.141,0.196-0.279,0.392-0.476,0.587c-2.127,2.184-4.197,4.199-6.212,6.045l-0.14,0.141    l-0.056,0.056l-1.399,1.315c-4.337,3.945-8.872,7.611-15.447,12.593l-0.084,0.083c-3.834,2.91-6.968,5.401-9.626,7.668    l-0.112,0.084l-0.084,0.084c-4.057,3.555-8.086,7.557-12.257,12.705c-1.986,2.602-3.806,5.373-6.015,8.73    c-2.52,3.834-5.513,8.396-9.542,14.02l-0.028,0.056c-1.595,2.155-3.218,4.198-4.87,6.213l-0.056,0.056l-0.14,0.168l-0.056,0.057    l-0.112,0.111c-0.586,0.784-1.258,1.539-1.93,2.323l-0.644,0.671l-1.371,1.568l-4.226,4.561c4.98,0.027,9.599-0.027,14.244-0.252    c6.855-0.308,13.768-1.008,21.968-2.407l0.167-0.026c7.781-1.372,13.797-1.959,19.114-2.072c3.078-0.083,5.877,0.028,8.646,0.197    c-0.028-0.225-0.028-0.477,0-0.701l0,0c0.028-0.223,0.056-0.447,0.14-0.67l0,0c0.028-0.141,0.084-0.281,0.141-0.421l6.017-14.831    c-0.056-0.561,0.026-1.119,0.251-1.623l7.192-17.77c0.335-0.868,0.979-1.512,1.79-1.848c9.961-4.422,11.109-8.172,13.545-16.146    c0.895-2.938,1.958-6.408,3.553-10.521c0.672-1.763,2.659-2.631,4.422-1.959c0.951,0.363,1.624,1.092,1.958,1.959    c1.483,3.834,2.49,7.107,3.387,9.99l0.027,0.14l0.111,0.392l0.112,0.363l0.14,0.365l0.112,0.363l0.112,0.363l0.083,0.336l0,0    l0.112,0.363l0.112,0.336l0.112,0.336l0.112,0.336l0,0l0.11,0.336l0,0l0.112,0.308l0,0l0.112,0.337l0.141,0.307l0.11,0.309    l0.112,0.307l0.112,0.309l0.112,0.308l0.141,0.28l0.11,0.308l0,0l0.141,0.28l0.14,0.279l0.112,0.28l0.139,0.28l0.141,0.279l0,0    l0.169,0.28l0.139,0.251l0,0l0.14,0.28l0,0l0.169,0.252l0,0l0.168,0.252l0,0l0.167,0.252l0.169,0.251l0,0l0.168,0.252l0.194,0.225    l0.169,0.252l0.196,0.223v0.028l0.195,0.224l0,0l0.196,0.225l0,0l0.223,0.225l0,0l0.225,0.223l0.196,0.225l0.251,0.224l0,0    l0.225,0.224l0.251,0.224l0.253,0.196l0,0l0.251,0.225l0.28,0.195l0.251,0.224l0.31,0.195l0,0l0.278,0.196l0.31,0.195l0.307,0.196    l0.309,0.196l0.336,0.195l0.335,0.196l0.337,0.167v0.029l0.363,0.168l0.363,0.195l0,0l0.364,0.168l0,0l0.392,0.196l0.42,0.167    l0.391,0.168l0.421,0.197l0.42,0.167c0.923,0.364,1.595,1.063,1.93,1.903l7.193,17.825h0.028v0.057l0,0l0.026,0.028l0,0v0.055l0,0    l0.027,0.057l0,0v0.056h0.028v0.028l0,0v0.057h0.028l0.028,0.195l0,0l0.027,0.056l0,0v0.028l0,0l0.028,0.168v0.027v0.028    c0.057,0.224,0.057,0.476,0.028,0.728l6.073,15c0.698,1.762-0.169,3.749-1.933,4.477l-0.335,0.111l0.057,0.112L307.07,403.53z     M91.008,243.883c-4.813-13.656-11.109-27.116-17.267-40.268c-11.864-25.354-23.282-49.701-23.282-73.15    c0-23.758,7.024-45.306,18.356-60.949c3.583-4.953,7.64-9.346,12.034-13.012c-10.997,4.057-20.876,10.073-29.103,17.573    c-15.896,14.44-25.746,34.392-25.746,56.388c0,21.631,16.761,45.193,34.196,69.708c10.13,14.243,20.483,28.794,28.124,43.71    H91.008z M178.037,130.465c0,23.449-11.389,47.797-23.254,73.15c-6.156,13.151-12.454,26.611-17.267,40.268h2.687    c7.64-14.916,17.995-29.467,28.125-43.71c17.405-24.515,34.195-48.077,34.195-69.708c0-21.996-9.85-41.947-25.744-56.388    c-8.228-7.5-18.105-13.517-29.104-17.573c4.394,3.666,8.451,8.059,12.034,13.012C171.04,85.159,178.037,106.707,178.037,130.465z     M126.378,201.516c4.785-24.793,9.404-48.637,9.404-71.051c0-22.695-2.743-43.179-7.165-57.955    c-4.057-13.543-9.151-21.938-14.355-21.938l0,0l0,0c-5.205,0-10.298,8.396-14.384,21.938c-4.422,14.776-7.163,35.26-7.163,57.955    c0,22.414,4.617,46.258,9.43,71.051c2.687,13.796,5.401,27.928,7.472,42.367h9.29    C120.951,229.443,123.692,215.312,126.378,201.516z M102.677,243.883c-2.014-13.879-4.673-27.62-7.275-41.08    c-4.87-25.158-9.544-49.336-9.544-72.338c0-23.339,2.855-44.521,7.443-59.913c2.183-7.248,4.813-13.32,7.837-17.825    C90.868,56.141,81.66,63.5,74.357,73.545c-10.493,14.524-17.014,34.645-17.014,56.92c0,21.995,11.082,45.642,22.612,70.239    c6.575,14.104,13.347,28.516,18.329,43.179H102.677z M142.666,130.465c0,23.002-4.673,47.18-9.542,72.338    c-2.602,13.46-5.289,27.201-7.277,41.08h4.394c4.981-14.663,11.725-29.074,18.33-43.179c11.529-24.598,22.61-48.244,22.61-70.239    c0-22.275-6.521-42.396-17.014-56.92c-7.303-10.045-16.51-17.404-26.781-20.818c2.995,4.505,5.654,10.577,7.836,17.825    C139.811,85.943,142.666,107.126,142.666,130.465z M314.711,237.278c1.454-1.175,3.609-0.95,4.785,0.532    c1.174,1.483,0.951,3.639-0.532,4.813c-0.056,0.028-20.598,16.539-21.186,23.982c-0.727,9.18-19.979,20.792-26.024,24.206    l0.337,24.737c0.028,1.875-1.484,3.442-3.387,3.471c-1.874,0-3.441-1.512-3.469-3.387l-0.337-26.779    c-0.028-1.204,0.615-2.406,1.735-3.023c0.084-0.027,23.729-12.788,24.289-19.756C291.764,255.721,314.626,237.307,314.711,237.278    z M253.901,442.372c0,1.903-1.539,3.442-3.443,3.442c-1.902,0-3.441-1.539-3.441-3.442v-18.498    c-9.879,0.673-19.729,3.331-29.58,7.641l5.792-14.355c0.7-1.764-0.167-3.75-1.902-4.45l-0.504-0.168l2.883-7.08v-0.027    l0.028-0.056l0.026-0.057l2.743-6.8l0,0l0.028-0.084l0,0l0.028-0.084l0,0l0.028-0.084l0,0l0.028-0.084l0,0l0.028-0.084l0,0v-0.084    l0,0l0.028-0.056v-0.028v-0.084l0,0l0.028-0.084l0,0l0.028-0.084l0,0v-0.084l0,0v-0.084l0,0v-0.084l0,0v-0.056v-0.028v-0.084l0,0    v-0.057v-0.027v-0.056v-0.028v-0.056v-0.028v-0.057v-0.026v-0.056v-0.029l-0.028-0.056l0,0v-0.084l0,0l-0.028-0.083l0,0v-0.085    l0,0l-0.028-0.084l0,0l-0.028-0.083l0,0l-0.028-0.084l0,0v-0.057v-0.028l-0.028-0.056l0,0l-0.028-0.084l0,0l-0.028-0.084l0,0    l-0.056-0.057v-0.027l-0.028-0.056l0,0l-0.026-0.084l0,0l-0.028-0.056v-0.029l-0.056-0.056l0,0l-0.028-0.083l0,0l-0.056-0.057l0,0    l-0.028-0.084l0,0l-0.056-0.055l0,0l-0.028-0.085l0,0l-0.056-0.056l0,0l-0.056-0.057l0,0l-0.056-0.083l0,0l-0.056-0.056l0,0    l-0.055-0.057l0,0l-0.056-0.057l0,0l-0.056-0.056V394.8l-0.056-0.056l0,0l-0.056-0.057l0,0l-0.056-0.027v-0.029l-0.084-0.027    v-0.028l-0.056-0.028l0,0l-0.083-0.055l0,0l-0.056-0.057l0,0l-0.084-0.057l0,0l-0.056-0.027l0,0l-0.084-0.057l0,0l-0.056-0.027    v-0.027l-0.084-0.028l0,0l-0.084-0.028l0,0l-0.083-0.056l0,0l-0.084-0.028l0,0l-0.084-0.027l0,0l-0.335-0.112l0,0l3.944-9.739    c0.197-0.503,0.281-1.063,0.225-1.566l5.961-14.72c11.613-5.4,13.068-10.157,16.033-19.84l0.197-0.588l0.056,0.224l0.14,0.448    l0.139,0.447l0.14,0.419l0.141,0.449l0.112,0.419l0.139,0.421l0.14,0.419l0.141,0.419l0.112,0.421l0.139,0.392l0.14,0.392    l0.141,0.392l0.14,0.393l0.139,0.391l0.141,0.364l0.14,0.364l0.141,0.391l0.139,0.336l0.14,0.365l0.168,0.363l0.139,0.336    l0.168,0.363l0.168,0.336l0.168,0.336l0.167,0.336l0.168,0.336l0.168,0.335l0.195,0.308l0.197,0.336l0.195,0.309l0.196,0.308    l0.197,0.308l0.223,0.308l0.197,0.28l0.224,0.308l0.251,0.28l0.225,0.308l0.251,0.28l0,0l0.253,0.279l0.251,0.28l0,0l0.28,0.28    l0.251,0.279l0,0l0.309,0.279l0,0l0.279,0.252l0,0l0.309,0.28l0.308,0.252l0.307,0.28l0.337,0.252l0.335,0.251l0.363,0.252    l0.365,0.252l0.363,0.251l0,0l0.363,0.252l0.393,0.225l0.42,0.252l0,0l0.419,0.252l0,0l0.42,0.223l0,0l0.447,0.252l0,0    l0.449,0.225l0,0l0.447,0.225l0,0l0.476,0.223v0.028l0.504,0.224l0,0l0.476,0.225l0,0l0.531,0.223l0,0l5.905,14.607l0,0v0.057l0,0    v0.057l0,0v0.027v0.028v0.196v0.027v0.028v0.028l0,0v0.055l0,0v0.057l0,0v0.027v0.028l0,0v0.028l0,0v0.057l0,0l0.027,0.056l0,0    v0.056v0.027v0.057l0.028,0.057v0.056l0.028,0.026v0.029v0.027l0,0v0.057h0.028v0.027v0.028v0.028l0,0l0.027,0.057l0,0v0.055    h0.028v0.028v0.028v0.027h0.028v0.028v0.028l0.028,0.027v0.029v0.026l0.026,0.028l3.75,9.318    c-0.896,0.252-1.678,0.867-2.127,1.764c-0.392,0.783-0.476,1.651-0.251,2.435l0,0l0.056,0.14l0,0l0.057,0.168l0,0v0.027v0.028    l0.028,0.028l0,0l0.027,0.057v0.056l0.028,0.028l3.889,9.598l0.028,0.084v0.056l1.679,4.114c-0.951,0.224-1.819,0.839-2.295,1.791    c-0.447,0.923-0.447,1.931-0.11,2.826l5.736,14.188c-9.795-4.646-19.561-6.912-29.327-7.164V442.372z M336.145,429.191    c0,1.902-1.539,3.441-3.441,3.441c-1.903,0-3.442-1.539-3.442-3.441v-12.761c-6.269,0.531-12.536,2.127-18.776,4.646l3.357-8.312    c0.645-1.566,0-3.357-1.398-4.197l0.057-0.112l0.027-0.056l0.057-0.14l3.637-9.011l0,0l0.029-0.056l0,0v-0.085h0.027v-0.083l0,0    l0.028-0.057l0,0l0.028-0.084l0,0l0.027-0.057l0,0v-0.082l0,0l0.027-0.085l0,0v-0.056h0.027v-0.084l0,0v-0.057l0,0v-0.084h0.028    v-0.084l0,0v-0.055l0,0v-0.084v-0.085v-0.056v-0.084v-0.084v-0.057l0,0v-0.083l0,0v-0.056l0,0l-0.028-0.084l0,0v-0.141l0,0    l-0.027-0.084l0,0v-0.056l0,0l-0.027-0.14l0,0l-0.027-0.084l0,0l-0.028-0.057l0,0v-0.083h-0.028v-0.056l0,0l-0.027-0.085l0,0    l-0.057-0.112l0,0l-0.168-0.335l0,0l-0.029-0.056l0,0l-0.027-0.057l0,0l-0.028-0.084h-0.028l-0.027-0.056l-0.028-0.056    l-0.083-0.113l-0.056-0.055l-0.056-0.057l-0.029-0.056l0,0l-0.168-0.167l0,0l-0.027-0.057l0,0l-0.057-0.057l-0.057-0.027    l-0.055-0.057l0,0l-0.056-0.055l0,0l-0.056-0.057l-0.057-0.028l-0.084-0.056l-0.057-0.028l-0.056-0.056l2.52-6.24    c0.167-0.42,0.251-0.867,0.251-1.315l4.086-10.13l0.336-0.141l0.336-0.168l0.334-0.167l0.338-0.169l0.307-0.167l0.309-0.169    l0.308-0.168l0.28-0.167l0.279-0.169l0.281-0.139l0.278-0.168l0.253-0.168l0.251-0.168l0.253-0.168l0.25-0.168l0.225-0.168    l0.224-0.168l0.225-0.168l0.223-0.168l0.225-0.168l0,0l0.196-0.168l0.195-0.168l0.196-0.168l0.196-0.167l0.195-0.169l0,0    l0.168-0.168l0.168-0.167v-0.028l0.168-0.168l0,0l0.168-0.168l0,0l0.168-0.168v-0.027l0.167-0.168l0,0l0.141-0.168l0.14-0.195l0,0    l0.168-0.197l0,0l0.111-0.168l0,0l0.141-0.195l0,0l0.141-0.195l0,0l0.139-0.168V370.9l0.112-0.167v-0.028l0.14-0.168v-0.027    l0.113-0.168v-0.027l0.111-0.197l0.111-0.195l0,0l0.111-0.195l0,0l0.113-0.197v-0.027l0.111-0.195l0,0l0.085-0.196v-0.028    l0.11-0.195l0.112-0.224l0,0l0.085-0.196v-0.027l0.084-0.197v-0.027l0.111-0.195v-0.029l0.083-0.223l0.085-0.225l0,0l0.111-0.224    l0,0l0.084-0.224l0,0l0.085-0.252l0,0l0.084-0.225v-0.027l0.083-0.225l0,0l0.084-0.252l0,0l0.084-0.251l0,0l0.084-0.252l0,0    l0.084-0.252l0,0l0.085-0.28l0.084,0.28l0,0l0.083,0.252l0.111,0.252l0,0l0.085,0.251l0,0l0.084,0.252l0.084,0.252l0,0    l0.085,0.225l0.082,0.252l0,0l0.112,0.252l0.084,0.224l0,0l0.085,0.224l0.111,0.252l0.083,0.224l0.112,0.224l0.084,0.225    l0.112,0.225l0.112,0.223l0,0l0.111,0.225l0.111,0.195l0.084,0.224l0.141,0.196l0,0l0.113,0.225l0.109,0.195l0.113,0.224    l0.141,0.196l0.111,0.195l0,0l0.139,0.196l0,0l0.141,0.195l0.141,0.196l0.141,0.195l0,0l0.139,0.196l0.14,0.196l0,0l0.169,0.168    l0.141,0.195l0,0l0.166,0.168l0.168,0.196l0,0l0.169,0.167l0.167,0.196l0,0l0.168,0.169l0.197,0.167l0.194,0.196l0.169,0.168    h0.027l0.197,0.168l0.194,0.167l0,0l0.196,0.169l0,0l0.223,0.168l0,0l0.197,0.167l0.225,0.169l0.25,0.139l0,0l0.225,0.169    l0.252,0.167l0,0l0.225,0.168l0.25,0.141l0.281,0.168l0.251,0.168l0.28,0.139l0.279,0.168l0,0l0.281,0.141l0,0l0.279,0.14    l0.309,0.169l0.307,0.139L343,377.17l0.31,0.168h0.028l0.307,0.141l4.059,10.045c0,0.168,0,0.309,0.028,0.477l0,0l0.028,0.084l0,0    v0.083v0.028l0,0l0.027,0.056l0,0v0.028l0,0v0.027v0.029l0.027,0.027l0,0v0.028l0,0v0.056l0,0l0.027,0.027l0,0v0.057l0,0    l0.028,0.027l0,0v0.057l0,0v0.028l0.028,0.028l0,0l0,0v0.055l0,0l0.027,0.028l0,0v0.056l0,0l0.028,0.028l0,0l2.407,5.961    l-0.027,0.027l0,0l-0.057,0.028l0,0l-0.057,0.027v0.028l-0.027,0.028l0,0l-0.057,0.027l0,0l-0.027,0.029l0,0l-0.057,0.027l0,0    l-0.027,0.028v0.027l-0.057,0.028l0,0l-0.028,0.027l0,0l-0.054,0.057l0,0l-0.029,0.027l0,0l-0.056,0.028l-0.028,0.057l0,0    l-0.027,0.028l-0.057,0.055l0,0l-0.027,0.028l0,0l-0.029,0.056l0,0l-0.056,0.028l0,0v0.028l-0.028,0.027l0,0l-0.027,0.029l0,0    l-0.028,0.055l-0.056,0.057l-0.029,0.027l-0.025,0.057l-0.028,0.056l-0.028,0.056l-0.027,0.027l-0.028,0.057l-0.028,0.057    l-0.028,0.056l-0.028,0.056c-0.447,0.896-0.475,1.902-0.111,2.799l3.75,9.29c-0.532,0.308-0.979,0.783-1.289,1.371    c-0.447,0.924-0.447,1.932-0.109,2.826l3.273,8.116c-6.157-2.631-12.369-3.974-18.555-4.254V429.191z M132.255,461.429    c-1.902,0-3.441-1.567-3.441-3.442c0-1.902,1.539-3.441,3.441-3.441h244.132c1.902,0,3.441,1.539,3.441,3.441    c0,1.875-1.539,3.442-3.441,3.442H132.255z M275.225,450.039c-1.903,0-3.442-1.539-3.442-3.441c0-1.903,1.539-3.442,3.442-3.442    h168.938c1.876,0,3.414,1.539,3.414,3.442c0,1.902-1.538,3.441-3.414,3.441H275.225z M461.429,450.039    c-1.874,0-3.415-1.539-3.415-3.441c0-1.903,1.541-3.442,3.415-3.442h21.127c1.904,0,3.443,1.539,3.443,3.442    c0,1.902-1.539,3.441-3.443,3.441H461.429z M122.628,450.375c-1.874,0-3.413-1.538-3.413-3.441c0-1.875,1.539-3.442,3.413-3.442    h80.063c1.902,0,3.442,1.567,3.442,3.442c0,1.903-1.541,3.441-3.442,3.441H122.628z M224.127,144.064    c0.084-1.875,1.679-3.357,3.581-3.273c1.876,0.084,3.359,1.678,3.274,3.582c0,0.084-1.763,31.846-22.947,58.317    c-20.036,25.046-26.668,49.924-26.668,49.979c-0.532,1.819-2.406,2.883-4.226,2.378c-1.82-0.503-2.883-2.378-2.379-4.197    c0-0.083,6.996-26.276,27.929-52.441C222.503,173.672,224.127,144.148,224.127,144.064z M100.019,327.135    c1.735-0.729,3.75,0.111,4.477,1.848c0.728,1.762-0.111,3.777-1.846,4.505c-0.084,0.028-31.175,13.487-31.175,23.282    c0,13.181-8.311,23.311-8.311,23.339c-1.12,1.538-3.247,1.903-4.785,0.783c-1.539-1.091-1.902-3.218-0.811-4.757    c0-0.028,7.023-8.647,7.023-19.365C64.59,342.666,99.906,327.19,100.019,327.135z M137.489,250.768h-30.868h-0.083H95.793h-0.084    h-4.673l6.268,27.563h33.916l3.246-14.271h-15.475c-1.902,0-3.441-1.567-3.441-3.442c0-1.902,1.539-3.441,3.441-3.441h17.042    L137.489,250.768z" style="fill-rule:evenodd;clip-rule:evenodd;"/></g></g><g id="Layer_1"/></svg>